<?xml version="1.0" encoding="UTF-8"?>
<svg xmlns="http://www.w3.org/2000/svg" xmlns:xlink="http://www.w3.org/1999/xlink" width="454.2572pt" height="454.458013pt" viewBox="0 0 454.2572 454.458013" version="1.1">
<defs>
<clipPath id="clip1">
  <path d="M 0.0585938 0.992188 L 454.257812 0.992188 L 454.257812 454.457031 L 0.0585938 454.457031 Z M 0.0585938 0.992188 "/>
</clipPath>
</defs>
<g id="surface1">
<g clip-path="url(#clip1)" clip-rule="nonzero">
<path style=" stroke:none;fill-rule:evenodd;fill:rgb(13.729858%,12.159729%,12.548828%);fill-opacity:1;" d="M 212.5 227.625 L 227.382812 212.742188 L 242.261719 227.625 L 227.382812 242.507812 Z M 396.125 357.246094 L 411.007812 342.363281 L 396.125 327.484375 L 381.242188 342.363281 Z M 396.125 128.496094 L 411.007812 113.613281 L 396.125 98.730469 L 381.242188 113.613281 Z M 433.375 336.246094 L 448.257812 321.363281 L 433.375 306.484375 L 418.492188 321.363281 Z M 433.375 148.496094 L 448.257812 133.613281 L 433.375 118.734375 L 418.492188 133.613281 Z M 366.125 331.246094 L 381.007812 316.363281 L 366.125 301.484375 L 351.242188 316.363281 Z M 366.125 154.496094 L 381.007812 139.613281 L 366.125 124.734375 L 351.242188 139.613281 Z M 401.125 311.246094 L 416.007812 296.363281 L 401.125 281.484375 L 386.242188 296.363281 Z M 401.125 174.496094 L 416.007812 159.613281 L 401.125 144.734375 L 386.242188 159.613281 Z M 338.875 306.246094 L 353.757812 291.363281 L 338.875 276.484375 L 323.992188 291.363281 Z M 338.875 179.496094 L 353.757812 164.613281 L 338.875 149.734375 L 323.992188 164.613281 Z M 436.875 290.246094 L 451.757812 275.363281 L 436.875 260.484375 L 421.992188 275.363281 Z M 436.875 195.496094 L 451.757812 180.613281 L 436.875 165.734375 L 421.992188 180.613281 Z M 439.125 242.496094 L 454.007812 227.613281 L 439.125 212.734375 L 424.242188 227.613281 Z M 404.125 220.496094 L 419.007812 205.613281 L 404.125 190.734375 L 389.242188 205.613281 Z M 404.125 265.746094 L 419.007812 250.863281 L 404.125 235.984375 L 389.242188 250.863281 Z M 370.625 287.246094 L 385.507812 272.363281 L 370.625 257.484375 L 355.742188 272.363281 Z M 370.625 198.496094 L 385.507812 183.613281 L 370.625 168.734375 L 355.742188 183.613281 Z M 372.375 242.496094 L 387.257812 227.613281 L 372.375 212.734375 L 357.492188 227.613281 Z M 342.125 221.496094 L 357.007812 206.613281 L 342.125 191.734375 L 327.242188 206.613281 Z M 342.125 264.746094 L 357.007812 249.863281 L 342.125 234.984375 L 327.242188 249.863281 Z M 313.375 283.246094 L 328.257812 268.363281 L 313.375 253.484375 L 298.492188 268.363281 Z M 313.375 202.496094 L 328.257812 187.613281 L 313.375 172.734375 L 298.492188 187.613281 Z M 289.125 223.496094 L 304.007812 208.613281 L 289.125 193.734375 L 274.242188 208.613281 Z M 289.125 262.746094 L 304.007812 247.863281 L 289.125 232.984375 L 274.242188 247.863281 Z M 314.875 242.496094 L 329.757812 227.613281 L 314.875 212.734375 L 299.992188 227.613281 Z M 266.375 242.496094 L 281.257812 227.613281 L 266.375 212.734375 L 251.492188 227.613281 Z M 57.882812 357.246094 L 43 342.363281 L 57.882812 327.484375 L 72.765625 342.363281 Z M 57.882812 128.496094 L 43 113.613281 L 57.882812 98.730469 L 72.765625 113.613281 Z M 20.632812 336.246094 L 5.75 321.363281 L 20.632812 306.484375 L 35.515625 321.363281 Z M 20.632812 148.496094 L 5.75 133.613281 L 20.632812 118.734375 L 35.515625 133.613281 Z M 87.882812 331.246094 L 73 316.363281 L 87.882812 301.484375 L 102.765625 316.363281 Z M 87.882812 154.496094 L 73 139.613281 L 87.882812 124.734375 L 102.765625 139.613281 Z M 52.882812 311.246094 L 38 296.363281 L 52.882812 281.484375 L 67.765625 296.363281 Z M 52.882812 174.496094 L 38 159.613281 L 52.882812 144.734375 L 67.765625 159.613281 Z M 115.132812 306.246094 L 100.25 291.363281 L 115.132812 276.484375 L 130.015625 291.363281 Z M 115.132812 179.496094 L 100.25 164.613281 L 115.132812 149.734375 L 130.015625 164.613281 Z M 17.132812 290.246094 L 2.25 275.363281 L 17.132812 260.484375 L 32.015625 275.363281 Z M 17.132812 195.496094 L 2.25 180.613281 L 17.132812 165.734375 L 32.015625 180.613281 Z M 14.882812 242.496094 L 0 227.613281 L 14.882812 212.734375 L 29.765625 227.613281 Z M 49.882812 220.496094 L 35 205.613281 L 49.882812 190.734375 L 64.765625 205.613281 Z M 49.882812 265.746094 L 35 250.863281 L 49.882812 235.984375 L 64.765625 250.863281 Z M 83.382812 287.246094 L 68.5 272.363281 L 83.382812 257.484375 L 98.265625 272.363281 Z M 83.382812 198.496094 L 68.5 183.613281 L 83.382812 168.734375 L 98.265625 183.613281 Z M 81.632812 242.496094 L 66.75 227.613281 L 81.632812 212.734375 L 96.515625 227.613281 Z M 111.882812 221.496094 L 97 206.613281 L 111.882812 191.734375 L 126.765625 206.613281 Z M 111.882812 264.746094 L 97 249.863281 L 111.882812 234.984375 L 126.765625 249.863281 Z M 140.632812 283.246094 L 125.75 268.363281 L 140.632812 253.484375 L 155.515625 268.363281 Z M 140.632812 202.496094 L 125.75 187.613281 L 140.632812 172.734375 L 155.515625 187.613281 Z M 164.882812 223.496094 L 150 208.613281 L 164.882812 193.734375 L 179.765625 208.613281 Z M 164.882812 262.746094 L 150 247.863281 L 164.882812 232.984375 L 179.765625 247.863281 Z M 139.132812 242.496094 L 124.25 227.613281 L 139.132812 212.734375 L 154.015625 227.613281 Z M 187.632812 242.496094 L 172.75 227.613281 L 187.632812 212.734375 L 202.515625 227.613281 Z M 53.75 388.117188 L 68.632812 403 L 83.511719 388.117188 L 68.632812 373.234375 Z M 372.5 388.117188 L 387.382812 403 L 402.261719 388.117188 L 387.382812 373.234375 Z M 79.75 359.617188 L 94.632812 374.5 L 109.511719 359.617188 L 94.632812 344.734375 Z M 344.5 359.617188 L 359.382812 374.5 L 374.261719 359.617188 L 359.382812 344.734375 Z M 97.75 397.117188 L 112.632812 412 L 127.511719 397.117188 L 112.632812 382.234375 Z M 326.5 397.117188 L 341.382812 412 L 356.261719 397.117188 L 341.382812 382.234375 Z M 105.75 334.617188 L 120.632812 349.5 L 135.511719 334.617188 L 120.632812 319.734375 Z M 318.5 334.617188 L 333.382812 349.5 L 348.261719 334.617188 L 333.382812 319.734375 Z M 118.75 434.367188 L 133.632812 449.25 L 148.511719 434.367188 L 133.632812 419.484375 Z M 306.5 434.367188 L 321.382812 449.25 L 336.261719 434.367188 L 321.382812 419.484375 Z M 123.75 367.117188 L 138.632812 382 L 153.511719 367.117188 L 138.632812 352.234375 Z M 300.5 367.117188 L 315.382812 382 L 330.261719 367.117188 L 315.382812 352.234375 Z M 129.75 309.617188 L 144.632812 324.5 L 159.511719 309.617188 L 144.632812 294.734375 Z M 294.5 309.617188 L 309.382812 324.5 L 324.261719 309.617188 L 309.382812 294.734375 Z M 143.75 402.117188 L 158.632812 417 L 173.511719 402.117188 L 158.632812 387.234375 Z M 280.5 402.117188 L 295.382812 417 L 310.261719 402.117188 L 295.382812 387.234375 Z M 148.75 339.867188 L 163.632812 354.75 L 178.511719 339.867188 L 163.632812 324.984375 Z M 275.5 339.867188 L 290.382812 354.75 L 305.261719 339.867188 L 290.382812 324.984375 Z M 152.75 287.367188 L 167.632812 302.25 L 182.511719 287.367188 L 167.632812 272.484375 Z M 271.5 287.367188 L 286.382812 302.25 L 301.261719 287.367188 L 286.382812 272.484375 Z M 164.75 437.867188 L 179.632812 452.75 L 194.511719 437.867188 L 179.632812 422.984375 Z M 259.5 437.867188 L 274.382812 452.75 L 289.261719 437.867188 L 274.382812 422.984375 Z M 212.5 440.117188 L 227.382812 455 L 242.261719 440.117188 L 227.382812 425.234375 Z M 234.5 405.117188 L 249.382812 420 L 264.261719 405.117188 L 249.382812 390.234375 Z M 189.25 405.117188 L 204.132812 420 L 219.011719 405.117188 L 204.132812 390.234375 Z M 167.75 371.617188 L 182.632812 386.5 L 197.511719 371.617188 L 182.632812 356.734375 Z M 256.5 371.617188 L 271.382812 386.5 L 286.261719 371.617188 L 271.382812 356.734375 Z M 212.5 373.367188 L 227.382812 388.25 L 242.261719 373.367188 L 227.382812 358.484375 Z M 233.5 343.117188 L 248.382812 358 L 263.261719 343.117188 L 248.382812 328.234375 Z M 190.25 343.117188 L 205.132812 358 L 220.011719 343.117188 L 205.132812 328.234375 Z M 171.75 314.367188 L 186.632812 329.25 L 201.511719 314.367188 L 186.632812 299.484375 Z M 252.5 314.367188 L 267.382812 329.25 L 282.261719 314.367188 L 267.382812 299.484375 Z M 231.5 290.117188 L 246.382812 305 L 261.261719 290.117188 L 246.382812 275.234375 Z M 192.25 290.117188 L 207.132812 305 L 222.011719 290.117188 L 207.132812 275.234375 Z M 212.5 315.867188 L 227.382812 330.75 L 242.261719 315.867188 L 227.382812 300.984375 Z M 173.75 266.367188 L 188.632812 281.25 L 203.511719 266.367188 L 188.632812 251.484375 Z M 250.5 266.367188 L 265.382812 281.25 L 280.261719 266.367188 L 265.382812 251.484375 Z M 212.5 267.367188 L 227.382812 282.25 L 242.261719 267.367188 L 227.382812 252.484375 Z M 230.5 246.867188 L 245.382812 261.75 L 260.261719 246.867188 L 245.382812 231.984375 Z M 193.25 246.867188 L 208.132812 261.75 L 223.011719 246.867188 L 208.132812 231.984375 Z M 53.75 67.875 L 68.632812 52.992188 L 83.511719 67.875 L 68.632812 82.757812 Z M 372.5 67.875 L 387.382812 52.992188 L 402.261719 67.875 L 387.382812 82.757812 Z M 79.75 96.375 L 94.632812 81.492188 L 109.511719 96.375 L 94.632812 111.257812 Z M 344.5 96.375 L 359.382812 81.492188 L 374.261719 96.375 L 359.382812 111.257812 Z M 97.75 58.875 L 112.632812 43.992188 L 127.511719 58.875 L 112.632812 73.757812 Z M 326.5 58.875 L 341.382812 43.992188 L 356.261719 58.875 L 341.382812 73.757812 Z M 105.75 121.375 L 120.632812 106.492188 L 135.511719 121.375 L 120.632812 136.257812 Z M 318.5 121.375 L 333.382812 106.492188 L 348.261719 121.375 L 333.382812 136.257812 Z M 118.75 21.625 L 133.632812 6.742188 L 148.511719 21.625 L 133.632812 36.507812 Z M 306.5 21.625 L 321.382812 6.742188 L 336.261719 21.625 L 321.382812 36.507812 Z M 123.75 88.875 L 138.632812 73.992188 L 153.511719 88.875 L 138.632812 103.757812 Z M 300.5 88.875 L 315.382812 73.992188 L 330.261719 88.875 L 315.382812 103.757812 Z M 129.75 146.375 L 144.632812 131.492188 L 159.511719 146.375 L 144.632812 161.257812 Z M 294.5 146.375 L 309.382812 131.492188 L 324.261719 146.375 L 309.382812 161.257812 Z M 143.75 53.875 L 158.632812 38.992188 L 173.511719 53.875 L 158.632812 68.757812 Z M 280.5 53.875 L 295.382812 38.992188 L 310.261719 53.875 L 295.382812 68.757812 Z M 148.75 116.125 L 163.632812 101.242188 L 178.511719 116.125 L 163.632812 131.007812 Z M 275.5 116.125 L 290.382812 101.242188 L 305.261719 116.125 L 290.382812 131.007812 Z M 152.75 168.625 L 167.632812 153.742188 L 182.511719 168.625 L 167.632812 183.507812 Z M 271.5 168.625 L 286.382812 153.742188 L 301.261719 168.625 L 286.382812 183.507812 Z M 164.75 18.125 L 179.632812 3.242188 L 194.511719 18.125 L 179.632812 33.007812 Z M 259.5 18.125 L 274.382812 3.242188 L 289.261719 18.125 L 274.382812 33.007812 Z M 212.5 15.875 L 227.382812 0.992188 L 242.261719 15.875 L 227.382812 30.757812 Z M 234.5 50.875 L 249.382812 35.992188 L 264.261719 50.875 L 249.382812 65.757812 Z M 189.25 50.875 L 204.132812 35.992188 L 219.011719 50.875 L 204.132812 65.757812 Z M 167.75 84.375 L 182.632812 69.492188 L 197.511719 84.375 L 182.632812 99.257812 Z M 256.5 84.375 L 271.382812 69.492188 L 286.261719 84.375 L 271.382812 99.257812 Z M 212.5 82.625 L 227.382812 67.742188 L 242.261719 82.625 L 227.382812 97.507812 Z M 233.5 112.875 L 248.382812 97.992188 L 263.261719 112.875 L 248.382812 127.757812 Z M 190.25 112.875 L 205.132812 97.992188 L 220.011719 112.875 L 205.132812 127.757812 Z M 171.75 141.625 L 186.632812 126.742188 L 201.511719 141.625 L 186.632812 156.507812 Z M 252.5 141.625 L 267.382812 126.742188 L 282.261719 141.625 L 267.382812 156.507812 Z M 231.5 165.875 L 246.382812 150.992188 L 261.261719 165.875 L 246.382812 180.757812 Z M 192.25 165.875 L 207.132812 150.992188 L 222.011719 165.875 L 207.132812 180.757812 Z M 212.5 140.125 L 227.382812 125.242188 L 242.261719 140.125 L 227.382812 155.007812 Z M 173.75 189.625 L 188.632812 174.742188 L 203.511719 189.625 L 188.632812 204.507812 Z M 250.5 189.625 L 265.382812 174.742188 L 280.261719 189.625 L 265.382812 204.507812 Z M 212.5 188.625 L 227.382812 173.742188 L 242.261719 188.625 L 227.382812 203.507812 Z M 230.5 209.125 L 245.382812 194.242188 L 260.261719 209.125 L 245.382812 224.007812 Z M 193.25 209.125 L 208.132812 194.242188 L 223.011719 209.125 L 208.132812 224.007812 L 193.25 209.125 "/>
</g>
</g>
</svg>
